<?xml version="1.0" encoding="UTF-8"?>
<svg id="Layer_2" data-name="Layer 2" xmlns="http://www.w3.org/2000/svg" viewBox="0 0 438.92 105.67">
  <defs>
    <style>
      .cls-1 {
        fill: #f9af28;
      }

      .cls-2 {
        fill: #26442b;
      }
    </style>
  </defs>
  <g id="Layer_1-2" data-name="Layer 1">
    <g>
      <path class="cls-1" d="M219.96,103.34c.45.75.9,1.5,1.35,2.24l-.83.08c-1.53.15-2.09-1.96-.68-2.58l.03-.02c.03.08.08.18.13.27Z"/>
      <path class="cls-1" d="M219.8,105.66l-.83-.08c.47-.75.91-1.5,1.36-2.24.05-.08.1-.18.13-.27l.03.02c1.41.61.85,2.73-.7,2.58Z"/>
      <g>
        <path class="cls-2" d="M43.95,17.96c-.41.95-4.49,1.77-6.12,1.77-.68,0-1.22,0-1.63-.14-4.22-1.5-7.76-2.18-10.61-2.18-3.95,0-6.94.95-8.98,2.99-3.13,9.66-4.63,18.91-4.63,27.76,0,12.52,2.72,21.63,8.3,27.35,7.48,1.63,11.97,2.45,13.74,2.45s4.35-.41,7.76-1.09h.41c1.22,0,1.9,1.36,1.9,3.95,0,4.49-2.04,6.67-6.12,6.8-1.09.68-3.27.95-6.67.95-4.9,0-8.44-.27-10.75-.95-.95-.27-2.04-.82-3.27-1.5C6.53,80,0,62.59,0,48.98c0,.68.27-.95.68-4.63.27-4.76.95-11.97,2.18-21.36.95-5.44,2.45-9.39,4.35-11.84.14-.27.82-.82,2.04-1.63,3.95-2.72,8.98-4.08,15.24-4.08,6.67,0,11.84.68,15.51,2.04,2.18.68,4.35,6.53,4.35,9.25,0,.68-.14,1.09-.41,1.22Z"/>
        <path class="cls-2" d="M109.94,88.71c-1.63.82-4.22,1.22-7.62,1.22-11.84,0-36.87-5.71-42.86-11.84l-.14-1.09c-3.95-5.85-5.85-19.87-5.85-42.18,0-13.33,1.09-21.77,3.13-25.31.41,0,1.09-.14,2.31-.54,1.09-.27,1.91-.41,2.31-.41,1.77,0,2.99.95,3.67,2.99-.14,2.18-.27,5.44-.27,9.8,0,12.25.41,23.81,1.36,34.7.27,3.67.68,8.3,1.36,13.88.41.95.82,2.04,1.5,2.99,3.13-.14,7.48.14,13.06.95,6.12.95,10.48,1.36,13.06,1.36.95-1.22,1.36-3.67,1.36-7.35,0-2.31-.54-9.25-1.77-20.82-1.09-10.75-1.63-18.5-1.63-23.4,0-10.75,2.18-16.46,6.4-17.14.27-.27.68-.41,1.09-.41,5.58,0,8.84,43.13,8.84,54.97,1.77,3.4,2.72,8.16,2.72,14.15s-.68,10.48-2.04,13.47Z"/>
        <path class="cls-2" d="M184.09,90.89c-2.04,0-3.4-2.04-3.95-5.17-.14-1.09-.41-4.76-.54-10.89l-.54-18.64c-.14-4.49-.27-8.3-.27-11.7,0-7.76.27-13.61.82-17.28-2.18,6.39-5.71,16.06-10.48,28.98-4.76,12.93-8.3,22.59-10.34,29.12-.82.27-1.63.41-2.59.41-1.22,0-2.31-.41-3.27-1.36-1.22-3.67-4.08-11.43-8.71-23.4-4.49-11.29-8.3-21.77-11.43-31.16-.54,2.72-.82,8.3-.82,16.87,0-2.31-.41,7.89-1.36,30.61-.14,4.35,1.09,12.65-6.4,12.65-3.4,0-3.54-1.36-3.54-5.71,0-1.77.27-3.95.82-6.53.68-3.27,1.09-5.44,1.22-6.53.54-5.03.95-11.43,1.22-19.46l1.22-31.29c.14-2.31.27-3.95.54-5.17.95-1.36,2.59-2.04,4.76-2.04,1.91,0,3.27.41,4.22,1.36,4.22,9.39,6.53,14.29,6.8,14.69,2.45,5.71,4.35,10.75,5.85,15.24,1.36,2.99,2.99,7.76,5.03,14.15.82,4.49,1.77,8.16,2.86,10.75,2.72-2.31,6.4-11.16,10.88-26.53,2.04-6.67,4.9-16.6,8.3-29.8v-.41c0-2.18,2.99-3.4,5.31-3.4,1.9,0,3.54.54,5.03,1.63v-.14l.14.41.82,8.03c.14.54.41,6.8.82,18.91.14,6.94.54,17.55,1.5,31.57,1.09,10.07,1.63,15.38,1.63,16.06,0,1.5-3.95,5.17-5.58,5.17Z"/>
        <path class="cls-2" d="M246.54,61.23v5.03c-.14.82-.27,1.5-.54,2.18-2.59,7.08-10.75,13.47-19.87,17.28-4.9,2.04-9.25,3.13-13.2,3.13-1.22,0-7.62-.41-10.48-5.31-1.22-15.51-1.77-41.77-1.77-78.78,1.77-1.63,14.69-4.63,15.65-4.63.41,0,1.22,0,2.18-.14h2.18c3.4,0,13.74,2.18,15.78,3.67.95.82,1.9,1.77,2.86,2.86,3.95,4.76,5.85,10.07,5.85,15.92,0,9.25-4.49,17.82-13.33,25.72v1.36c.95.68,2.59,1.36,5.03,2.04,2.86.68,4.63,1.22,5.31,1.63,2.86,3.13,4.35,5.85,4.35,8.03ZM211.16,20.41c0,3.54,1.22,10.75,3.81,21.5.14,0,1.22.27,1.22.41.68.14,1.09-.54.95-1.09,12.93-1.5,18.91-8.16,17.82-20.14l-.14-1.5c-5.31-5.85-9.25-5.71-21.91-5.71-1.22,1.22-1.77,3.4-1.77,6.53ZM234.97,66.26c0-3.13-5.44-5.44-8.71-5.44-.41,0-1.5.14-3.27.41-2.31.27-4.9.82-8.03,1.63-1.5.95-2.18,2.86-2.18,5.85,0,.95.27,3.95.68,9.25,3.13.41,4.35.54,3.81.54,5.31-.14,17.69-7.48,17.69-12.25Z"/>
        <path class="cls-2" d="M316.34,42.86c-.14,3.27-.27,5.71-.27,7.21v1.5l.14,3.27c.41,8.03.82,12.25-3.67,23.13-2.31,5.44-4.63,8.98-7.08,10.48-7.76,1.22-14.56,1.9-20.41,1.9-9.12,0-14.15-2.86-14.83-8.71-7.48-9.66-11.16-30.07-11.16-61.23,0-9.25-.27-8.16,4.08-15.24h.54c1.5,0,3.95.27,7.21.82,1.5,1.77,2.31,3.54,2.31,5.17,0,2.59-.14,6.53-.27,11.84-.27,5.31-.41,9.39-.41,11.97,0,1.77.14,6.26.54,13.33.68,11.84,2.45,20.68,5.44,26.26,1.77,3.4,4.76,5.17,8.71,5.17,2.86,0,4.9-.14,6.26-.27,2.04-1.22,5.03-3.4,8.71-6.53.54-.68,1.36-1.63,2.58-2.86.68-.68.95-3.4.95-8.03,0-1.91-.14-4.76-.27-8.57-.27-3.67-.41-6.53-.41-8.44,0-.95,0-2.31.14-4.22.14-1.77.14-3.27.14-4.22,0-1.77-.14-3.4-.41-5.17.14-2.04-.14-5.71-.68-10.75l-.27-1.22c-.14-.54-.27-.95-.27-1.22,0-6.67.41-10.34,1.09-11.16.41-.54,2.04-1.36,4.63-2.58.95.14,2.04.68,3.4,1.5,2.58.95,3.81,10.89,3.81,29.53,0,1.63-.14,4.08-.27,7.35Z"/>
        <path class="cls-2" d="M360.55,90.21c-4.22,0-7.08-.41-8.3-1.09-15.38-8.98-23.13-20.82-23.13-35.38,0-10.21,3.4-20.14,10.34-29.53,5.85-7.76,16.06-13.2,25.72-13.2,4.76,0,8.57,1.22,11.7,3.67v1.63c0,5.03-4.76,6.12-13.61,7.08-3.95.41-6.53,1.09-7.76,1.77-8.16,4.9-13.06,17.28-13.06,27.62,0,9.39,2.99,16.74,9.12,22.31,4.49,4.22,19.05,3.95,25.99,4.08,0,.14,0,.41.14.82v.95c0,8.16-7.35,9.25-17.14,9.25Z"/>
        <path class="cls-2" d="M435.52,53.06c0,2.04.14,5.03.41,8.98.27,3.95.41,6.94.41,8.98,0,9.52-.95,14.69-2.72,15.51-.95.41-1.91.68-2.86.68-.41,0-.82,0-1.5-.14h-1.5c-2.45-2.45-3.67-7.48-3.67-14.97,0-4.49.41-9.93,1.09-16.46.54-4.9.82-8.03.82-9.39-.95-.68-2.18-1.09-3.67-1.09-.54,0-1.36.14-2.31.27-.95.14-1.77.27-2.31.27-1.77,0-4.49-.27-8.16-.68-3.67-.41-6.39-.54-8.16-.54h-1.22c-.68.14-1.09.14-1.36.14-.14,4.22-.27,10.48-.41,18.78l-.54,18.78c-1.36,3.13-3.27,4.63-5.85,4.63-3.13,0-5.44-2.45-5.44-5.58,0-.95.14-1.77.54-2.45.41-15.24.14-38.23,5.44-71.3,2.18-3.4,11.02-5.03,26.67-5.03l-.14-.14c1.09.14,2.72.14,5.03-.27,2.04.14,10.07,1.9,11.56,2.59,1.36.95,2.45,2.86,3.27,5.85-2.31,23.54-3.4,37.83-3.4,42.59ZM416.88,11.97c-5.85,0-10.34.41-13.61,1.22-.68,1.63-1.09,3.81-1.5,6.4-.41,2.99-.68,5.03-1.09,6.26-.41,2.45-.68,4.63-.68,6.67,3.54.41,8.16.68,13.88.82,1.22,0,2.45.14,3.81.27l1.22.14,1.09.14h6.53c.14-1.77.27-5.17.68-10.48.41-4.22.54-7.76.54-10.34-1.36-.68-5.03-1.09-10.88-1.09Z"/>
      </g>
    </g>
  </g>
</svg>